/* XPM */
static char *_b5ecda8e3024955bf5a71366b26b797[] = {
/* columns rows colors chars-per-pixel */
"64 64 43 1 ",
"  c #0B0B0B",
". c #151515",
"X c #1C1C1C",
"o c #232323",
"O c #2B2B2B",
"+ c #343434",
"@ c #3C3C3C",
"# c #434343",
"$ c #4B4B4B",
"% c #534F4C",
"& c #535353",
"* c #5A5653",
"= c #5B5B5B",
"- c #646464",
"; c #6B6B6B",
": c #747474",
"> c #7B7B7B",
", c #848484",
"< c #8C8C8C",
"1 c #928E8B",
"2 c #939393",
"3 c #999693",
"4 c #9C9996",
"5 c #9B9B9B",
"6 c #A39F9C",
"7 c #A5A19E",
"8 c #A4A4A4",
"9 c #ABABAB",
"0 c gray70",
"q c #BBBBBB",
"w c #C3C3C3",
"e c #CCCCCC",
"r c #D5D5D5",
"t c #DDD9D6",
"y c #DBDBDB",
"u c #E0DCD9",
"i c #E2E2E2",
"p c #ECEAE7",
"a c #ECECEC",
"s c #F3F3F3",
"d c #F9F5F2",
"f c #FBF9F6",
"g c #FEFEFE",
/* pixels */
"o+o@X@o@X@X@o+o@X#X#X+o#X#X+X@X#X+X#X@X@.@OOO+X#X@X@X@X+o+o@o@o@",
"&&=$-$&$&&$eypyrryyriyrryiio+,90ereereqw0,$O#$#$#$$##$&&$&&$=$&$",
"==$&&&&&&=$iewewrrrweewrrq5.+<wq29,<<2<,8&@.#;<<,2<<>;;$$$$$@$$#",
",<<2<<<<o$#irqwww0eqew0qe8&X@9r9<9<9,9<0<&#o@<riypeiq092,,<<<,2<",
"rrre09,,o=$ye988858899290:-.#<q<<<9999,,;&+X+<yrqwqeiyyeryererer",
"989959,>X$#iw88090<q<9,99-&.#$8298<<8<8:=$@o@<yq8828805529<9<9<5",
"q58582>-o$$ge525552555<20<&X+#,<,0<05,0;@#@X+,y0552<,2,9<,55828<",
"09,0,5==X@#sw2238022:<29<-&X@$#<995<<29;@@+X#<y98,2,95,<8,99<,88",
"59855:#$X.&qq920<8<8,2<<9;- o#&$:#@+@@@@@oo@+:ii<9,,2:2292,,98><",
"<2,,:&$#o##0p989<22>5<<9<&;OX##@#O+#@+O+o.o$$$ww<<<2858,58289252",
">-:;&$+@XX$5r252<:<59<558;=+o@$+.OOo OX+X@O#$#e929<55:<;----;=-=",
"&=#$#oOXX@$-i8,5:,,58<,>2;=#X#@#$$;:558995;@&$0<;:---=$=&$$##$$$",
"XXoXo+o+o+&$yw<52522<8,<9,=+X##:90iyayey2:&X$&<;-==$#$@++#OO+oOX",
"o@X+oo+O@#$+0y28,:<922<<,:$@..#9qrwq<828,;#X@+$+@#++@#@XoooXooO.",
"@@@@+@+@@+$=,w8<88,><>,0<-&@O+#8yq9<<<,<<&#XOoX@o.@OoO.#@+$++@+@",
"&&+#@@@@X@&#:w2ririyyiryyryyyiryiriyyyyyyiryiyyyy=o@#=$##$##$@$@",
"25,8<5255oX=#eqyririyyyyyyyyyiiryyyyyyyyyryyyiiry&$$,25<58225558",
"reyeer09:@O$#59iiaasasssssasssayysasasasssssaspyro$,wyiyyrariryr",
"05<0,88;;@X$&-5ryfggggggggggggsyygggggggggggggsyi.$2re0q900q8q00",
"822<0,8-:#X$$&5iygggfgggggggggsyygggggggggggggsyyX$5yq88859<5,85",
"0<20,58:&@X#$$-rygggggggggggggsyyggggggfggggggsyyX$5e552,5<5>,,<",
"858,9<2;$@o$=@Oyyggfggggggggggsyygggggggggggggsyyo#2e55585925>52",
"28><,58;=#X+$&$yrgggggfgggggfgsyygggggggggggfgsyrO#>w5,52<<2:,22",
",<,;28<-#@o@,iryygggggfgggggggsyygggggfgggggggsyyX$,w9529<82,><2",
"<298<,2=&Oo@rw9rigggggggggggggsiyfggggggggggggsii.&-w<92<52,829<",
"88<<82;&@@X@i8<yeiyyryyyiyyyyiyeeiyyryyyiyyryiyero$#2;-&&=--:>2,",
"=---;&##@#X+y80risssasassssssssiisssasssfssasssirO$O@#@$##$$#&&&",
"-##@++oXXXX#r,8iyfggggggggggggsyygggggggggggggsyi.=+XoXooo.oo+@$",
".oO.XOo@o&&+i92yigggggggggggggsyygggggggggggggsyy.=#+#@+@@oOoooX",
"&=-:<5,,2>#oi8,rrgggggfgggfgggsyygggfgfgggfgggsyrO$#@$$=&=&=$#@+",
"-2wyryyrw0-Oi89irgggggggggggggsyygggggggggggggsyyo$qry02=$##$##=",
"-9ewwq8959#Xa<2iygggggfgggfgggayygggggfggfggggsyyX$y<,qiiryii2#$",
"-yq98<529,:Xp89yyggfggggggggggsyyfggggggggggggsryX#p<<89><0<,,+&",
";e98,559,5:os<,yyssssssssssssssyyasasssssssssfsyro$i05<<08<8<-@#",
"-a0<9<99,8&Xi99yyyyyyyryyyyyyyyrriyryyyyyyyyyyyyiX#w9250,<829-##",
";e08<25282=oyq:iriyyyyyyyyyyyyiyyyyyyyyyyyyiyyyyro&e95928,292=@$",
"-y059829<5&Xer<risssssfsssssssssssasssssssssssaii@@0559558<,q$@@",
";yq59<8285#oqy,yygggggggfgggggggggggggggggggggsyr#o;&#$=$==&&$#+",
"-y0220<8,9&.5e5yyggggggggggggggggggfggggggggggsyr=#OXoXooXOXOo.#",
"-y0<<29<9,=o>y0yyggfggggfgggggggggggggggfgggggsyy#&#$#+@@@+@+@#+",
"-i099,5928-X$f<yygggggggggggggggggggggggggggggsyy>:,:>>,>:>:>;@=",
";y0<28,9<;#O$s8yygggggggggggggggggggggggggggggsyy0ww0qw0e0eqw<+$",
"-wq8929<8=Xo#a8yygggggggggggggggggggggggggggggsyisaassssyiwr2-.$",
";eq<9250<&X+$i2rrgggggggggggggggggggggggggfgggfyy0qe09qw00r0>=X=",
"-w9028<<,$X##p8yygggggggggggggggggggggggfgggggayy8552,<0,9,0-=+@",
"#e<252;:>$o@#r2ryggggggggggggggggggggggggsggsgsyy<80<58<9982;$O+",
"&8q85<-$$Oo+$q5iygggggggggggggggggggggggs8225fsir<,<<229,9<8:&+#",
"#,>>=&&&=X+#@28yrgggggggggggggggggggggggg2555gfry,<95>:2:52<:$O+",
"#@Xoo$&&$O+@$>;rrgggggggggggggggggggggggf73%3gdty9,2>2<>82:,;=.#",
"&&&$+ooXOO$$+@+iygggggggggggggggggggggggf41*3gpty3,2,82,2<>,;&X@",
"##&$$###oX@$@@Xyygggggggggggggggggggggggg3716fdui9<8258,222<>&o@",
"$>59092<-##&@@oyygggggggggggggggggggggggg4245fsyr,>,:>>>:>>>;@O+",
"$0rryeriq092-==yygfggggggggggggggggggggggfggsgpyi&&&&&&=&=&&&O+@",
"#9e992qeiiyq999yygggggggggggggggggggggggggdffgsieO.ooXXoXOXXX.@#",
"$9y99090<9qeayryyggggggggggggggggggggggggggggfsyyOOOO@o@X+O@@@$$",
"#8i9,8>>88<<8>9yyggggggggggggggggggggggggggfggsyi#+#++@+@@+@@#&&",
"$9e980<92<<88<2rygggggggggggggggggggggggggggggsir$@##$@$$@$#=$=$",
"#9w8<8>>88<502,iyggfgfggggggggggggggggggggggggayiiyriiiwee92>&+=",
"$82-&;-==---;--rrgggggggggggggggggggggggggggggsyy20825298520r5O$",
"$,-@@@@@@@#@@+#yyggfggggggggggggggggggggggggggsry282808,988,8=.=",
"@$XXoXoXXoX.oXXrigggggggggggggggggggggggggggggsir55592592502<&X=",
"&$+@+O+oO+oo+Ooyysssssssssssssssssssssssssssssaii==$&=$$-&$&&$o&",
"=&&&#@$#$$$$@+@rryyyyyyiyyyyyyyyyyyyyyyyyyyyyyyryoXXXXoXXXoo.oX=",
"@@+@#@+@+@@@@@#yyyyyyyriyyyyyyyyyyyyyyyyyyryyyyyy@@@#@@+@+#+@@@@"
};
